<svg xmlns="http://www.w3.org/2000/svg" width="22" height="22" viewBox="0 0 263.419 228.808">
  <path id="Icon_material-shopping-basket" data-name="Icon material-shopping-basket" d="M195.592,87.175,143.148,8.093A11.86,11.86,0,0,0,133.21,3.03a11.678,11.678,0,0,0-9.938,5.184L70.827,87.175H13.474A12.05,12.05,0,0,0,1.5,99.231a10.217,10.217,0,0,0,.479,3.255L32.392,214.238a23.839,23.839,0,0,0,22.989,17.6H211.038a24.088,24.088,0,0,0,23.109-17.6L264.56,102.486l.359-3.255a12.05,12.05,0,0,0-11.974-12.055Zm-98.3,0L133.21,34.132l35.921,53.043Zm35.921,96.442a24.111,24.111,0,1,1,23.947-24.11A24.1,24.1,0,0,1,133.21,183.617Z" transform="translate(-1.5 -3.03)" fill="#13293D"/>
</svg>
