<svg xmlns="http://www.w3.org/2000/svg" width="22" height="22" viewBox="0 0 263.419 228.808">
  <path id="Icon_awesome-search" data-name="Icon awesome-search" d="M264.616,223.882l-52.242-50.42a12.8,12.8,0,0,0-8.908-3.54h-8.541a102.377,102.377,0,0,0,23.056-64.732C217.981,47.082,169.2,0,108.99,0S0,47.082,0,105.189,48.784,210.379,108.99,210.379a110.975,110.975,0,0,0,67.071-22.252v8.243a11.916,11.916,0,0,0,3.668,8.6l52.242,50.42a12.845,12.845,0,0,0,17.763,0l14.829-14.312a11.9,11.9,0,0,0,.052-17.194ZM108.99,169.921c-37.046,0-67.071-28.927-67.071-64.732,0-35.754,29.972-64.732,67.071-64.732,37.046,0,67.071,28.927,67.071,64.732C176.061,140.944,146.089,169.921,108.99,169.921Z" fill="#13293D"/>
</svg>
