<svg xmlns="http://www.w3.org/2000/svg" width="22" height="22" viewBox="0 0 283.523 258.653">
  <path id="Icon_awesome-user-circle" data-name="Icon awesome-user-circle" d="M141.762.562C63.45.562,0,58.446,0,129.889S63.45,259.215,141.762,259.215s141.762-57.884,141.762-129.326S220.074.562,141.762.562Zm0,50.062c27.781,0,50.3,20.546,50.3,45.89s-22.522,45.89-50.3,45.89-50.3-20.546-50.3-45.89S113.981,50.624,141.762,50.624Zm0,179.388c-33.554,0-63.621-13.871-83.742-35.565,10.746-18.46,31.782-31.184,56.3-31.184a15.228,15.228,0,0,1,4.059.574,77.752,77.752,0,0,0,46.758,0,15.228,15.228,0,0,1,4.058-.574c24.522,0,45.558,12.724,56.3,31.184C205.383,216.141,175.316,230.013,141.762,230.013Z" transform="translate(0 -0.563)" fill="#13293D"/>
</svg>
